<svg id="visual" viewBox="0 0 900 450" width="900" height="450" xmlns="http://www.w3.org/2000/svg" xmlns:xlink="http://www.w3.org/1999/xlink" version="1.1"><path d="M0 55L75 55L75 42L150 42L150 78L225 78L225 60L300 60L300 73L375 73L375 73L450 73L450 33L525 33L525 37L600 37L600 69L675 69L675 55L750 55L750 73L825 73L825 55L900 55L900 33L900 0L900 0L825 0L825 0L750 0L750 0L675 0L675 0L600 0L600 0L525 0L525 0L450 0L450 0L375 0L375 0L300 0L300 0L225 0L225 0L150 0L150 0L75 0L75 0L0 0Z" fill="#0f172a"></path><path d="M0 105L75 105L75 132L150 132L150 109L225 109L225 100L300 100L300 141L375 141L375 105L450 105L450 114L525 114L525 87L600 87L600 114L675 114L675 145L750 145L750 163L825 163L825 105L900 105L900 132L900 31L900 53L825 53L825 71L750 71L750 53L675 53L675 67L600 67L600 35L525 35L525 31L450 31L450 71L375 71L375 71L300 71L300 58L225 58L225 76L150 76L150 40L75 40L75 53L0 53Z" fill="#0b1326"></path><path d="M0 177L75 177L75 226L150 226L150 177L225 177L225 217L300 217L300 181L375 181L375 213L450 213L450 190L525 190L525 154L600 154L600 159L675 159L675 199L750 199L750 244L825 244L825 226L900 226L900 231L900 130L900 103L825 103L825 161L750 161L750 143L675 143L675 112L600 112L600 85L525 85L525 112L450 112L450 103L375 103L375 139L300 139L300 98L225 98L225 107L150 107L150 130L75 130L75 103L0 103Z" fill="#060d22"></path><path d="M0 334L75 334L75 303L150 303L150 339L225 339L225 334L300 334L300 375L375 375L375 303L450 303L450 258L525 258L525 294L600 294L600 343L675 343L675 267L750 267L750 339L825 339L825 339L900 339L900 334L900 229L900 224L825 224L825 242L750 242L750 197L675 197L675 157L600 157L600 152L525 152L525 188L450 188L450 211L375 211L375 179L300 179L300 215L225 215L225 175L150 175L150 224L75 224L75 175L0 175Z" fill="#00061e"></path><path d="M0 451L75 451L75 451L150 451L150 451L225 451L225 451L300 451L300 451L375 451L375 451L450 451L450 451L525 451L525 451L600 451L600 451L675 451L675 451L750 451L750 451L825 451L825 451L900 451L900 451L900 332L900 337L825 337L825 337L750 337L750 265L675 265L675 341L600 341L600 292L525 292L525 256L450 256L450 301L375 301L375 373L300 373L300 332L225 332L225 337L150 337L150 301L75 301L75 332L0 332Z" fill="#000000"></path></svg>