<svg id="visual" viewBox="0 0 900 600" width="900" height="600" xmlns="http://www.w3.org/2000/svg" xmlns:xlink="http://www.w3.org/1999/xlink" version="1.1"><rect x="0" y="0" width="900" height="600" fill="#ffffff"></rect><path d="M0 265L113 250L225 236L338 232L450 261L563 354L675 270L788 228L900 290L900 0L788 0L675 0L563 0L450 0L338 0L225 0L113 0L0 0Z" fill="#5e71a7"></path><path d="M0 177L113 240L225 290L338 182L450 200L563 183L675 302L788 298L900 190L900 0L788 0L675 0L563 0L450 0L338 0L225 0L113 0L0 0Z" fill="#4c619b"></path><path d="M0 138L113 198L225 202L338 197L450 207L563 160L675 141L788 135L900 208L900 0L788 0L675 0L563 0L450 0L338 0L225 0L113 0L0 0Z" fill="#3a528e"></path><path d="M0 149L113 159L225 115L338 186L450 134L563 162L675 105L788 177L900 114L900 0L788 0L675 0L563 0L450 0L338 0L225 0L113 0L0 0Z" fill="#2d4681"></path><path d="M0 114L113 148L225 88L338 85L450 145L563 63L675 127L788 100L900 110L900 0L788 0L675 0L563 0L450 0L338 0L225 0L113 0L0 0Z" fill="#273f72"></path><path d="M0 87L113 83L225 49L338 71L450 29L563 53L675 83L788 64L900 44L900 0L788 0L675 0L563 0L450 0L338 0L225 0L113 0L0 0Z" fill="#223764"></path></svg>