<svg id="visual" viewBox="0 0 900 600" width="900" height="600" xmlns="http://www.w3.org/2000/svg" xmlns:xlink="http://www.w3.org/1999/xlink" version="1.1"><rect x="0" y="0" width="900" height="600" fill="#0f172a"></rect><path d="M0 380L90 396L180 364L270 391L360 354L450 379L540 377L630 397L720 350L810 395L900 393L900 601L810 601L720 601L630 601L540 601L450 601L360 601L270 601L180 601L90 601L0 601Z" fill="#517de8"></path><path d="M0 446L90 418L180 431L270 383L360 382L450 434L540 448L630 420L720 452L810 412L900 402L900 601L810 601L720 601L630 601L540 601L450 601L360 601L270 601L180 601L90 601L0 601Z" fill="#4a73d4"></path><path d="M0 472L90 427L180 461L270 486L360 444L450 454L540 458L630 477L720 464L810 441L900 470L900 601L810 601L720 601L630 601L540 601L450 601L360 601L270 601L180 601L90 601L0 601Z" fill="#4368c0"></path><path d="M0 486L90 506L180 483L270 476L360 448L450 448L540 491L630 448L720 458L810 445L900 466L900 601L810 601L720 601L630 601L540 601L450 601L360 601L270 601L180 601L90 601L0 601Z" fill="#3d5ead"></path><path d="M0 524L90 486L180 532L270 501L360 512L450 514L540 482L630 478L720 512L810 506L900 508L900 601L810 601L720 601L630 601L540 601L450 601L360 601L270 601L180 601L90 601L0 601Z" fill="#36549a"></path><path d="M0 524L90 522L180 519L270 518L360 552L450 524L540 532L630 540L720 549L810 545L900 536L900 601L810 601L720 601L630 601L540 601L450 601L360 601L270 601L180 601L90 601L0 601Z" fill="#304a88"></path><path d="M0 554L90 555L180 578L270 566L360 557L450 562L540 559L630 546L720 547L810 543L900 575L900 601L810 601L720 601L630 601L540 601L450 601L360 601L270 601L180 601L90 601L0 601Z" fill="#2a4076"></path></svg>